# xmcd
#
# Track frame offsets: 
#        150
#        21385
#        38853
#        69571
#        85143
#        91540
#        112012
#        126145
#        140420
#        150299
#        166461
#        184126
#        192994
#        207665
#
# Disc length: 2828 seconds
#
# Revision: 0
# Processed by: cddbd v1.4PL0 Copyright (c) Steve Scherf et al.
# Submitted via: ExactAudioCopy v0.90b4
#
DISCID=be0b0a0e
DTITLE=Blind Willie James and Allen Moffatt - Blues
DYEAR=2001
DGENRE=Blues
TTITLE0=Twist
TTITLE1=Sign Me Up
TTITLE2=Shake Rattle and Roll
TTITLE3=Motherless Child
TTITLE4=Willie does "The Blind Willie" with Allen on drums
TTITLE5=Don't the Moon Look Lonesome
TTITLE6=The Mule Song
TTITLE7=Amazing Grace - A Tribute to Diamond Tooth Mary
TTITLE8=Doo Doo Blues
TTITLE9=Hound Dog
TTITLE10=Long Time Comin'
TTITLE11=This Little Light
TTITLE12=America
TTITLE13=I Need a Cold Beer
EXTD=
EXTT0=
EXTT1=
EXTT2=
EXTT3=
EXTT4=
EXTT5=
EXTT6=
EXTT7=
EXTT8=
EXTT9=
EXTT10=
EXTT11=
EXTT12=
EXTT13=
PLAYORDER=
